<?xml version="1.0" standalone="no"?>
<!DOCTYPE svg PUBLIC "-//W3C//DTD SVG 20010904//EN"
 "http://www.w3.org/TR/2001/REC-SVG-20010904/DTD/svg10.dtd">
<svg version="1.0" xmlns="http://www.w3.org/2000/svg"
 width="495.000000pt" height="125.000000pt" viewBox="0 0 495.000000 125.000000"
 preserveAspectRatio="xMidYMid meet">

<g transform="translate(0.000000,125.000000) scale(0.100000,-0.100000)"
fill="#000000" stroke="none">
<path d="M540 919 c-146 -29 -275 -154 -314 -304 -38 -145 5 -297 114 -399
164 -154 417 -151 573 6 234 235 115 628 -211 697 -60 13 -98 13 -162 0z m204
-90 c169 -63 260 -264 196 -433 -38 -101 -138 -188 -240 -211 -54 -13 -144 -7
-192 11 -88 34 -148 92 -191 182 -27 58 -29 70 -25 150 3 71 9 96 32 138 84
155 260 223 420 163z"/>
<path d="M617 820 c-4 -8 -15 -48 -26 -88 -11 -41 -23 -82 -26 -93 -6 -17 -1
-19 59 -19 l65 0 -14 48 c-39 132 -53 166 -58 152z"/>
<path d="M405 546 c-57 -19 -94 -36 -85 -39 8 -3 49 -15 90 -27 41 -12 83 -24
93 -26 15 -5 17 3 17 60 0 36 -3 66 -7 65 -5 0 -53 -16 -108 -33z"/>
<path d="M730 515 c0 -50 3 -66 13 -62 6 2 55 17 107 32 52 15 96 29 98 30 1
1 -39 14 -90 28 -51 14 -101 29 -110 32 -16 6 -18 0 -18 -60z"/>
<path d="M563 398 c2 -7 17 -57 33 -110 15 -54 29 -96 31 -94 3 2 15 43 28 90
13 48 27 95 30 106 6 19 2 20 -60 20 -50 0 -66 -3 -62 -12z"/>
<path d="M1511 767 c-115 -36 -180 -198 -137 -340 32 -107 106 -157 231 -157
44 0 90 6 111 15 33 14 35 17 29 47 -4 18 -8 34 -9 35 -1 1 -20 -4 -41 -12
-68 -24 -144 -14 -189 24 -53 45 -71 162 -36 238 33 74 107 103 200 79 30 -8
56 -13 58 -11 2 1 5 18 8 37 6 35 5 35 -39 47 -56 14 -140 13 -186 -2z"/>
<path d="M3500 765 c-54 -17 -106 -64 -131 -120 -22 -47 -26 -172 -8 -226 33
-99 116 -149 244 -149 44 0 97 5 118 11 l37 10 0 119 0 120 -85 0 -85 0 0 -40
0 -40 40 0 40 0 0 -49 c0 -47 -2 -50 -30 -56 -75 -16 -158 25 -186 92 -20 46
-18 141 4 183 36 72 118 100 217 75 32 -9 59 -14 60 -13 2 2 5 19 7 38 3 32 1
35 -37 46 -53 17 -150 16 -205 -1z"/>
<path d="M4510 764 c-81 -35 -121 -103 -128 -216 -8 -128 39 -227 125 -264 42
-18 154 -18 197 0 57 24 104 82 120 149 12 52 8 156 -9 206 -19 59 -76 115
-132 130 -54 15 -132 13 -173 -5z m163 -75 c51 -28 71 -79 68 -179 -3 -105
-37 -154 -116 -167 -90 -14 -155 58 -155 173 0 126 41 184 131 184 28 0 60 -5
72 -11z"/>
<path d="M1913 525 l-2 -245 150 0 149 0 0 41 0 40 -102 -2 -103 -3 0 69 0 70
78 3 77 3 0 34 c0 35 0 35 -47 36 -117 2 -108 -3 -108 59 l0 55 98 3 97 3 0
39 0 40 -142 0 -143 0 -2 -245z"/>
<path d="M2380 525 l0 -245 45 0 45 0 0 101 0 100 32 -3 c29 -3 37 -11 80 -88
56 -100 77 -120 129 -120 36 0 39 2 39 29 0 20 -6 30 -19 34 -10 2 -38 37 -61
76 -23 40 -48 75 -56 78 -21 8 -17 22 10 29 41 10 68 48 74 104 11 114 -39
149 -210 150 l-108 0 0 -245z m211 155 c13 -8 19 -21 19 -47 0 -54 -23 -73
-87 -73 l-53 0 0 65 0 65 51 0 c28 0 59 -5 70 -10z"/>
<path d="M2920 525 l0 -245 146 0 145 0 -3 38 -3 37 -97 3 -98 3 0 69 0 70 80
0 80 0 0 35 0 35 -80 0 -80 0 0 60 0 60 95 0 95 0 0 40 0 40 -140 0 -140 0 0
-245z"/>
<path d="M3950 525 l0 -245 145 0 145 0 0 34 c0 42 -9 46 -116 46 l-84 0 0 70
0 70 80 0 80 0 0 35 c0 21 -5 35 -12 36 -7 0 -43 0 -80 -1 l-68 -1 0 60 0 61
100 0 100 0 0 40 0 40 -145 0 -145 0 0 -245z"/>
</g>
</svg>
